<svg width="52" height="52" fill="none" xmlns="http://www.w3.org/2000/svg"><path d="M36.716 30.906 30.1 27.473l11.69-9.23 6.673 3.037-11.746 9.626zm4.507 5.118L29.659 47.242V28.4l6.895 3.577c.173.09.38.068.532-.057l4.137-3.39v7.494zm-30.85-8.01 11.082 6.119a.487.487 0 0 0 .542-.05l6.666-5.454v18.854l-18.29-9.65v-9.818zm-.421-9.471 18.275 9.127-6.591 5.392-18.03-9.955 6.346-4.564zm-6.35-4.245L15.767 6.16l5.976 2.852-11.88 8.342-6.26-3.056zm18.653 9.243-11.352-5.67L22.255 9.9v13.64zm6.847 3.42-5.85-2.922V9.72l17.497 8.046-11.647 9.194zm-.665-21.695 18.257 7.957-5.035 3.831-17.915-8.237 4.693-3.551zm21.479 15.82a.515.515 0 0 0-.294-.407l-6.91-3.144 5.28-4.017a.525.525 0 0 0-.101-.893L28.564 4.2a.483.483 0 0 0-.486.059L22.696 8.33l-6.762-3.228a.484.484 0 0 0-.478.035L2.308 13.934a.523.523 0 0 0-.227.469.517.517 0 0 0 .285.433l6.547 3.196-6.546 4.709a.522.522 0 0 0-.214.455c.01.18.11.34.263.425l6.962 3.844V38.15a.52.52 0 0 0 .272.46l19.357 10.214a.485.485 0 0 0 .566-.083l12.488-12.115a.527.527 0 0 0 .158-.377v-8.536l7.512-6.155a.528.528 0 0 0 .185-.472z" fill="#3A98B2"/></svg>