<svg width="57" height="59" fill="none" xmlns="http://www.w3.org/2000/svg"><g clip-path="url(#a)" filter="url(#b)" fill="#3A98B2"><path d="M50.875 51H27.958a1.042 1.042 0 0 1-1.041-1.042V27.042c0-.575.466-1.042 1.041-1.042h22.917c.575 0 1.042.467 1.042 1.042v22.916c0 .575-.467 1.042-1.042 1.042zM29 48.917h20.833V28.083H29v20.834z"/><path d="M39.417 28.083H16.5a1.042 1.042 0 0 1-1.042-1.041V4.125c0-.575.467-1.042 1.042-1.042h22.917c.575 0 1.041.467 1.041 1.042v22.917c0 .575-.466 1.041-1.041 1.041zM17.542 26h20.833V5.167H17.542V26z"/><path d="M31.083 13.5h-6.25a1.042 1.042 0 0 1-1.041-1.042V4.125c0-.575.466-1.042 1.041-1.042h6.25c.575 0 1.042.467 1.042 1.042v8.333c0 .575-.467 1.042-1.042 1.042zm-5.208-2.083h4.167v-6.25h-4.167v6.25zM42.542 36.417h-6.25a1.042 1.042 0 0 1-1.042-1.042v-8.333c0-.575.467-1.042 1.042-1.042h6.25c.575 0 1.041.467 1.041 1.042v8.333c0 .575-.466 1.042-1.041 1.042zm-5.209-2.084H41.5v-6.25h-4.167v6.25zM27.958 51H5.042A1.042 1.042 0 0 1 4 49.958V27.042C4 26.467 4.467 26 5.042 26h22.916c.575 0 1.042.467 1.042 1.042v22.916c0 .575-.467 1.042-1.042 1.042zM6.083 48.917h20.834V28.083H6.083v20.834z"/><path d="M19.625 36.417h-6.25a1.042 1.042 0 0 1-1.042-1.042v-8.333c0-.575.467-1.042 1.042-1.042h6.25c.575 0 1.042.467 1.042 1.042v8.333c0 .575-.467 1.042-1.042 1.042zm-5.208-2.084h4.166v-6.25h-4.166v6.25z"/></g><defs><clipPath id="a"><path fill="#fff" transform="translate(3)" d="M0 0h50v52H0z"/></clipPath><filter id="b" x="-1" y="0" width="58" height="60" filterUnits="userSpaceOnUse" color-interpolation-filters="sRGB"><feFlood flood-opacity="0" result="BackgroundImageFix"/><feColorMatrix in="SourceAlpha" values="0 0 0 0 0 0 0 0 0 0 0 0 0 0 0 0 0 0 127 0" result="hardAlpha"/><feOffset dy="4"/><feGaussianBlur stdDeviation="2"/><feComposite in2="hardAlpha" operator="out"/><feColorMatrix values="0 0 0 0 0 0 0 0 0 0 0 0 0 0 0 0 0 0 0.25 0"/><feBlend in2="BackgroundImageFix" result="effect1_dropShadow_1_1570"/><feBlend in="SourceGraphic" in2="effect1_dropShadow_1_1570" result="shape"/></filter></defs></svg>