<svg width="43" height="43" fill="none" xmlns="http://www.w3.org/2000/svg"><path d="M31.738 15.677a3.071 3.071 0 1 0 0 6.142 3.071 3.071 0 0 0 0-6.142zm0 4.607c-.847 0-1.536-.689-1.536-1.536 0-.846.69-1.535 1.536-1.535.847 0 1.536.689 1.536 1.535 0 .847-.69 1.536-1.536 1.536zM10.366 7.999a2.559 2.559 0 1 0 0 5.12 2.559 2.559 0 0 0 0-5.12zm0 3.583a1.024 1.024 0 1 1 .003-2.049 1.024 1.024 0 0 1-.003 2.05z" fill="#3A98B2"/><path d="m40.964 7.269-10.262-1.1c-.56-.06-1.298-.09-2.036-.09s-1.476.03-2.036.09L16.37 7.27c-.183.02-.387.035-.601.048a6.688 6.688 0 0 0-5.53-2.901 6.69 6.69 0 0 0-4.885 2.109L2.036 6.17a1.946 1.946 0 0 0-.216-.012C.8 6.158 0 6.946 0 7.999v27.13c0 1.127.916 2.146 2.036 2.266l10.262 1.1c.56.06 1.297.09 2.035.09.739 0 1.476-.03 2.036-.09l10.262-1.1c.56-.06 1.297-.09 2.036-.09.738 0 1.475.03 2.035.09l10.262 1.1c.074.007.145.01.216.01 1.019 0 1.82-.787 1.82-1.84V9.534c0-1.127-.916-2.146-2.036-2.266zM13.566 37.035a15.152 15.152 0 0 1-1.104-.067L2.2 35.867c-.342-.037-.664-.396-.664-.74V7.999c0-.193.103-.305.284-.305l.053.003 2.454.263a6.37 6.37 0 0 0-.744 2.984c0 3.192 4.602 8.354 5.525 9.357l1.13 1.229 1.13-1.229a40.292 40.292 0 0 0 2.197-2.617v19.352zM10.239 19.26s-5.12-5.562-5.12-8.318c0-2.758 2.294-4.99 5.12-4.99s5.118 2.233 5.118 4.99c0 2.756-5.118 8.318-5.118 8.318zm17.66 16.521a18.63 18.63 0 0 0-1.431.086l-10.263 1.1c-.302.032-.687.054-1.103.067V15.5c.994-1.566 1.791-3.23 1.791-4.556 0-.753-.137-1.473-.377-2.146l.017-.001 10.262-1.1c.302-.032.687-.054 1.104-.067v4.992c-2.292 1.33-3.84 3.806-3.84 6.64 0 2.305 2.016 5.523 3.84 7.965v8.555zm-2.304-16.52a6.142 6.142 0 0 1 6.143-6.143 6.142 6.142 0 0 1 6.143 6.143c0 3.39-6.143 10.237-6.143 10.237s-6.143-6.846-6.143-10.237zm15.869 17.403c0 .194-.104.306-.284.306l-.053-.003-10.261-1.1c-.405-.043-.9-.072-1.432-.086v-6.607a46.74 46.74 0 0 0 1.16 1.35l1.144 1.273 1.143-1.273c1.091-1.217 6.535-7.476 6.535-11.263 0-4.234-3.444-7.678-7.678-7.678-.802 0-1.575.124-2.303.354V7.628c.416.014.801.036 1.104.068l10.261 1.1c.341.036.664.395.664.738v27.13z" fill="#3A98B2"/></svg>