<svg width="50" height="50" fill="none" xmlns="http://www.w3.org/2000/svg"><g clip-path="url(#a)" fill="#3A98B2"><path d="M32.031 21.094a.78.78 0 0 0-.781.781v13.281a.78.78 0 1 0 1.563 0V21.875a.78.78 0 0 0-.782-.781zM49.219 40.625H46.89a.78.78 0 1 0 0 1.563h2.328a.78.78 0 1 0 0-1.563z"/><path d="M49.219 40.625a.78.78 0 0 0-.782.781v3.125a.78.78 0 1 0 1.563 0v-3.125a.78.78 0 0 0-.781-.781zM7.813 43.75H7.81l-5.469.016a.78.78 0 0 0 .003 1.563h.002l5.469-.017a.78.78 0 0 0-.002-1.562zM48.438 36.719h-.782a.78.78 0 1 0 0 1.562h.782a.78.78 0 1 0 0-1.562z"/><path d="M48.438 31.25a.78.78 0 0 0-.782.781v9.375a.78.78 0 1 0 1.563 0v-9.375a.78.78 0 0 0-.782-.781zM43.75 21.094H32.031a.78.78 0 1 0 0 1.562H43.75a.78.78 0 1 0 0-1.562z"/><path d="m49.147 31.704-4.688-10.156a.78.78 0 1 0-1.419.655l4.688 10.156a.781.781 0 0 0 1.419-.655zM2.344 40.625a.78.78 0 0 0-.781.781v3.175a.78.78 0 1 0 1.562 0v-3.175a.78.78 0 0 0-.781-.781z"/><path d="M.781 30.469A.78.78 0 0 0 0 31.25v10.156a.78.78 0 1 0 1.563 0V31.25a.78.78 0 0 0-.782-.781z"/><path d="M32.031 30.469H.781a.78.78 0 1 0 0 1.562h31.25a.78.78 0 1 0 0-1.562zM4.688 40.625H.78a.78.78 0 1 0 0 1.563h3.906a.78.78 0 1 0 0-1.563zM12.5 39.063a5.476 5.476 0 0 0-5.469 5.468A5.476 5.476 0 0 0 12.5 50a5.476 5.476 0 0 0 5.469-5.469 5.476 5.476 0 0 0-5.469-5.468zm0 9.374a3.91 3.91 0 0 1-3.906-3.906 3.91 3.91 0 0 1 3.906-3.906 3.91 3.91 0 0 1 3.906 3.906 3.91 3.91 0 0 1-3.906 3.907z"/><path d="M12.5 42.188a2.347 2.347 0 0 0-2.344 2.343 2.347 2.347 0 0 0 2.344 2.344 2.347 2.347 0 0 0 2.344-2.344 2.347 2.347 0 0 0-2.344-2.343zm0 3.124a.782.782 0 1 1 0-1.563.782.782 0 0 1 0 1.563zM38.281 42.188a2.347 2.347 0 0 0-2.343 2.343 2.347 2.347 0 0 0 2.343 2.344 2.347 2.347 0 0 0 2.344-2.344 2.347 2.347 0 0 0-2.344-2.343zm0 3.124a.782.782 0 1 1 0-1.563.782.782 0 0 1 0 1.563z"/><path d="M38.281 39.063a5.476 5.476 0 0 0-5.468 5.468A5.476 5.476 0 0 0 38.28 50a5.476 5.476 0 0 0 5.469-5.469 5.476 5.476 0 0 0-5.469-5.468zm0 9.374a3.91 3.91 0 0 1-3.906-3.906 3.91 3.91 0 0 1 3.906-3.906 3.91 3.91 0 0 1 3.907 3.906 3.91 3.91 0 0 1-3.907 3.907z"/><path d="M33.613 43.75H17.188a.78.78 0 1 0 0 1.563h16.425a.78.78 0 1 0 0-1.563zM49.219 43.75h-6.25a.78.78 0 1 0 0 1.563h6.25a.78.78 0 1 0 0-1.563zM48.438 31.25h-9.376a.78.78 0 1 0 0 1.563h9.376a.78.78 0 1 0 0-1.563z"/><path d="M39.063 31.25a2.347 2.347 0 0 1-2.344-2.344.78.78 0 1 0-1.563 0 3.91 3.91 0 0 0 3.907 3.907.78.78 0 1 0 0-1.563z"/><path d="M35.938 21.094a.78.78 0 0 0-.782.781v7.031a.78.78 0 1 0 1.563 0v-7.031a.78.78 0 0 0-.782-.781zM34.375 11.719a.78.78 0 0 0-.781.781v3.125a.78.78 0 1 0 1.562 0V12.5a.78.78 0 0 0-.781-.781zM3.906 13.17a.78.78 0 0 0-.781.78v17.3a.78.78 0 1 0 1.563 0v-17.3a.78.78 0 0 0-.782-.78zM32.031 13.17a.78.78 0 0 0-.781.78v17.3a.78.78 0 1 0 1.563 0v-17.3a.78.78 0 0 0-.782-.78z"/><path d="M34.828 11.864 18.422.145a.782.782 0 0 0-.908 0L1.108 11.865a.78.78 0 1 0 .908 1.27L17.97 1.741 33.92 13.135a.777.777 0 0 0 1.088-.181.78.78 0 0 0-.181-1.09z"/><path d="M34.828 14.99 18.422 3.27a.782.782 0 0 0-.908 0L1.108 14.99a.78.78 0 1 0 .908 1.27L17.97 4.866 33.92 16.26a.777.777 0 0 0 1.088-.181.78.78 0 0 0-.181-1.09z"/><path d="M1.563 11.719a.78.78 0 0 0-.782.781v3.125a.78.78 0 1 0 1.563 0V12.5a.78.78 0 0 0-.781-.781zM20.313 21.094a.78.78 0 0 0-.782.781v9.375a.78.78 0 1 0 1.563 0v-9.375a.78.78 0 0 0-.782-.781z"/><path d="M20.313 21.094h-4.688a.78.78 0 1 0 0 1.562h4.688a.78.78 0 1 0 0-1.562z"/><path d="M15.625 21.094a.78.78 0 0 0-.781.781v9.375a.78.78 0 1 0 1.562 0v-9.375a.78.78 0 0 0-.781-.781zM12.5 17.188H7.031a.78.78 0 0 0-.781.78v5.47c0 .431.35.78.781.78H12.5a.78.78 0 0 0 .781-.78v-5.47a.78.78 0 0 0-.781-.78zm-.781 5.468H7.813V18.75h3.906v3.906zM28.906 17.188h-5.468a.78.78 0 0 0-.782.78v5.47c0 .431.35.78.782.78h5.468a.78.78 0 0 0 .782-.78v-5.47a.78.78 0 0 0-.782-.78zm-.781 5.468h-3.906V18.75h3.906v3.906zM17.969 10.156a3.128 3.128 0 0 0-3.125 3.125 3.128 3.128 0 0 0 3.125 3.125 3.128 3.128 0 0 0 3.125-3.125 3.128 3.128 0 0 0-3.125-3.125zm0 4.688c-.862 0-1.563-.701-1.563-1.563s.701-1.562 1.563-1.562c.861 0 1.562.7 1.562 1.562 0 .862-.7 1.563-1.562 1.563z"/></g><defs><clipPath id="a"><path fill="#fff" d="M0 0h50v50H0z"/></clipPath></defs></svg>