<svg width="97" height="26" viewBox="0 0 97 26" fill="none" xmlns="http://www.w3.org/2000/svg">
<path fill-rule="evenodd" clip-rule="evenodd" d="M7.63325 7.44184C7.63325 7.92036 7.63245 8.39901 7.63378 8.87753C7.63431 9.02785 7.63709 9.03169 7.77629 9.03222C8.28222 9.03395 8.78816 9.03063 9.29409 9.03474C9.4015 9.0358 9.43435 8.99911 9.43395 8.89303C9.43077 7.94261 9.43263 6.99219 9.43144 6.04204C9.43117 5.90138 9.42733 5.89781 9.27873 5.89728C8.77968 5.89569 8.2805 5.89556 7.78145 5.89741C7.63735 5.89781 7.63431 5.90178 7.63378 6.04707C7.63245 6.51195 7.63325 6.97683 7.63325 7.44184ZM3.60828 5.8439C3.88561 5.59239 4.16269 5.34035 4.44069 5.0895C5.74076 3.91631 7.04109 2.74326 8.34142 1.5702C8.53956 1.39141 8.54115 1.38968 8.74392 1.57153C9.06483 1.8592 9.38323 2.14951 9.70308 2.43824C9.74837 2.47903 9.78784 2.52764 9.86175 2.55638C9.90386 2.43109 9.87261 2.30368 9.88439 2.18051C9.89446 2.07376 9.83512 1.93893 9.91618 1.86754C9.98545 1.80662 10.1131 1.84966 10.2148 1.84887C10.5022 1.84648 10.7895 1.84754 11.0769 1.84834C11.2721 1.84887 11.2728 1.84966 11.2729 2.05323C11.2733 2.56631 11.2814 3.07967 11.2687 3.59275C11.2642 3.78228 11.3279 3.90744 11.468 4.03048C12.1007 4.58529 12.7245 5.15016 13.3506 5.71225C13.3999 5.75649 13.4425 5.80814 13.5132 5.88258H12.9672C12.8235 5.88258 12.6798 5.88046 12.5362 5.88297C12.3778 5.88589 12.31 5.93939 12.2826 6.09118C12.2705 6.15766 12.2734 6.22733 12.2735 6.29567C12.2757 6.97961 12.2712 7.66381 12.2852 8.34775C12.2905 8.61132 12.1806 8.76601 11.9505 8.87581C10.9153 9.36943 9.88996 9.88331 8.87107 10.4094C8.64273 10.5274 8.44115 10.5245 8.21269 10.4077C7.19181 9.8845 6.16736 9.36837 5.13059 8.8774C4.89126 8.76389 4.78848 8.59198 4.79272 8.3263C4.80411 7.63534 4.80054 6.94411 4.80252 6.25315C4.80266 6.20534 4.80332 6.15713 4.79828 6.10959C4.78067 5.94204 4.71882 5.8843 4.54677 5.88297C4.24017 5.88086 3.93343 5.88258 3.62682 5.88258C3.62059 5.8696 3.61437 5.85662 3.60828 5.8439Z" fill="#ABD2D9"/>
<path fill-rule="evenodd" clip-rule="evenodd" d="M44.6752 20.0082C44.5323 20.0077 44.4119 20.0269 44.3011 20.0853C44.0856 20.1991 44.0021 20.4392 44.1077 20.6552C44.2074 20.8588 44.3411 21.0393 44.5101 21.1912C44.6328 21.3014 44.6824 21.3061 44.8157 21.2116C44.9902 21.0884 45.1327 20.9327 45.2433 20.7502C45.3884 20.5103 45.3157 20.2424 45.0694 20.1052C44.9417 20.0343 44.8022 20.0066 44.6752 20.0082ZM44.2588 24.6142C44.5981 24.6345 44.8977 24.4891 45.1846 24.3093C45.3621 24.1984 45.374 24.1241 45.2417 23.9666C44.9339 23.6002 44.6248 23.235 44.3134 22.8718C44.1522 22.6837 44.0637 22.6682 43.8563 22.8072C43.5175 23.0346 43.3283 23.3576 43.3066 23.7655C43.2875 24.1222 43.4749 24.3973 43.8053 24.5366C43.9465 24.5965 44.0938 24.6174 44.2588 24.6142ZM46.1605 23.1331C46.235 23.0105 46.3023 22.9005 46.3688 22.7906C46.4935 22.5847 46.6758 22.5092 46.9101 22.5518C47.0853 22.5839 47.2555 22.6357 47.4188 22.7055C47.5516 22.7619 47.5858 22.8307 47.5409 22.9657C47.4593 23.2113 47.3922 23.4613 47.2444 23.6825C47.0725 23.9401 47.1081 24.1127 47.3544 24.2991C47.485 24.3981 47.6279 24.4806 47.7597 24.5781C47.9516 24.7198 47.9722 24.8121 47.8459 25.0104C47.751 25.16 47.6495 25.3078 47.5347 25.4425C47.3269 25.6868 47.1227 25.6987 46.8766 25.4971C46.8239 25.4537 46.7759 25.4045 46.7248 25.359C46.4881 25.1494 46.2227 25.0929 45.927 25.2157C45.8201 25.2602 45.7149 25.3101 45.6119 25.3632C44.6841 25.8388 43.7538 25.7837 42.8601 25.3063C41.8339 24.7578 41.6676 23.4363 42.4781 22.5526C42.5988 22.421 42.7325 22.304 42.8807 22.2047C42.9941 22.1284 43.1087 22.0533 43.2242 21.9805C43.442 21.8432 43.4216 21.8746 43.2905 21.6844C43.2246 21.5888 43.1548 21.4954 43.094 21.3965C42.9381 21.1438 42.8259 20.8759 42.8017 20.5744C42.7683 20.1611 42.9092 19.8235 43.2242 19.5585C43.4938 19.3313 43.8174 19.2263 44.1563 19.1606C44.7482 19.0456 45.3157 19.1001 45.8337 19.4301C46.2697 19.7078 46.5101 20.0998 46.4725 20.6316C46.4453 21.0151 46.2622 21.3202 45.9738 21.5631C45.8276 21.6866 45.6659 21.7908 45.5162 21.91C45.3774 22.0205 45.3731 22.0456 45.4417 22.2055C45.4713 22.2742 45.5068 22.3412 45.5468 22.4047C45.7162 22.6718 45.9391 22.893 46.1605 23.1331Z" fill="#F2B91D"/>
<path fill-rule="evenodd" clip-rule="evenodd" d="M8.55811 11.0253C10.0958 10.254 11.6209 9.48885 13.114 8.73988C13.1522 8.69975 13.1495 8.68889 13.1319 8.68134C12.8235 8.54823 12.7223 8.29937 12.7433 7.98323C12.7709 7.56629 12.7609 7.14896 12.7543 6.73177C12.7537 6.69071 12.7501 6.64978 12.7509 6.60873C12.7549 6.38331 12.8415 6.31192 13.0595 6.34993C13.2829 6.38874 13.4938 6.45774 13.6972 6.56264C14.3105 6.87838 14.9291 7.18419 15.5831 7.51279C14.7998 7.91025 14.0442 8.29368 13.2583 8.6926C14.0386 9.08675 14.7863 9.46461 15.549 9.84989C15.473 9.92724 15.3905 9.96035 15.3137 9.99916C14.3194 10.5002 13.3245 10.9996 12.33 11.4999C11.9699 11.6808 11.6074 11.8573 11.2521 12.0473C11.007 12.1783 10.7789 12.1747 10.5322 12.0462C9.94453 11.74 9.34999 11.447 8.75849 11.1482C8.69797 11.1175 8.63174 11.0967 8.55811 11.0253Z" fill="#F2B91D"/>
<path fill-rule="evenodd" clip-rule="evenodd" d="M1.49353 9.86971C2.28621 9.46894 3.04087 9.0875 3.82401 8.69149C3.03968 8.29456 2.28051 7.9106 1.49737 7.51446C2.2829 7.11951 3.02683 6.71649 3.79858 6.36909C3.83567 6.35227 3.875 6.33995 3.91447 6.32962C4.14678 6.26976 4.26532 6.34459 4.31061 6.57861C4.31458 6.59888 4.31935 6.61901 4.32041 6.63927C4.34849 7.186 4.34068 7.73339 4.32664 8.27999C4.32107 8.49468 4.26055 8.54779 3.98162 8.74434C5.47612 9.49503 6.96439 10.2425 8.45995 10.9936C8.4222 11.1045 8.3222 11.1294 8.24208 11.1689C7.89256 11.3409 7.54012 11.5067 7.18848 11.6745C7.01578 11.7569 6.83844 11.8304 6.67036 11.9214C6.32575 12.1076 5.98695 12.0676 5.64684 11.9154C4.88555 11.5744 4.15883 11.1645 3.41092 10.7971C2.82856 10.5109 2.24184 10.2333 1.65723 9.95183C1.61445 9.93143 1.57247 9.90945 1.49353 9.86971Z" fill="#F2B91D"/>
<path fill-rule="evenodd" clip-rule="evenodd" d="M8.38457 15.6504C8.30351 15.6124 8.24166 15.585 8.18126 15.5546C6.84385 14.8875 5.50643 14.2199 4.16901 13.5522C4.13246 13.5337 4.09709 13.5123 4.05974 13.4958C3.90346 13.4271 3.83764 13.3071 3.84042 13.1378C3.84558 12.8235 3.84452 12.5091 3.84518 12.1947C3.84571 11.9082 3.84532 11.6216 3.84532 11.3382C3.9175 11.3155 3.96028 11.357 4.00716 11.38C4.61826 11.6837 5.2328 11.9812 5.8382 12.2957C6.08746 12.4254 6.30705 12.42 6.55419 12.2903C7.09801 12.0049 7.65149 11.738 8.20193 11.4656C8.25543 11.4391 8.3055 11.3997 8.38457 11.3983V15.6504Z" fill="#F2B91D"/>
<path fill-rule="evenodd" clip-rule="evenodd" d="M8.71051 11.4115C8.78229 11.4001 8.83249 11.4412 8.88587 11.4675C9.4424 11.7435 10.0018 12.0142 10.5527 12.3011C10.7875 12.4232 10.9973 12.4232 11.2313 12.3022C11.8315 11.9915 12.4388 11.6945 13.0435 11.3926C13.0977 11.3654 13.1539 11.3422 13.2071 11.3181C13.2668 11.3545 13.2425 11.4075 13.2426 11.4502C13.2454 12.0039 13.2427 12.5577 13.2483 13.1115C13.2503 13.3061 13.1691 13.4264 12.9941 13.5128C11.8684 14.0695 10.7458 14.6327 9.62212 15.194C9.38399 15.3128 9.14718 15.4343 8.90812 15.5512C8.84865 15.5802 8.79474 15.6288 8.71051 15.6231V11.4115Z" fill="#F2B91D"/>
<path fill-rule="evenodd" clip-rule="evenodd" d="M8.71043 11.4115V15.6231C8.79467 15.6288 8.84857 15.5802 8.90804 15.5512C9.1471 15.4344 9.38391 15.3128 9.62205 15.194C10.7457 14.6327 11.8683 14.0695 12.9941 13.5129C13.169 13.4264 13.2502 13.3061 13.2482 13.1116C13.2427 12.5577 13.2453 12.0039 13.2425 11.4502C13.2424 11.4076 13.2668 11.3546 13.207 11.3182C13.1538 11.3423 13.0976 11.3654 13.0435 11.3926C12.4387 11.6946 11.8315 11.9915 11.2312 12.3022C10.9972 12.4233 10.7874 12.4233 10.5526 12.3012C10.0018 12.0143 9.44232 11.7436 8.88579 11.4675C8.83242 11.4412 8.78222 11.4001 8.71043 11.4115ZM8.38489 15.6505V11.3984C8.30582 11.3999 8.25576 11.4392 8.20225 11.4657C7.65181 11.7383 7.09833 12.005 6.55451 12.2906C6.30737 12.4201 6.08778 12.4255 5.83852 12.296C5.23312 11.9814 4.61858 11.684 4.00749 11.3803C3.9606 11.3572 3.91782 11.3156 3.84564 11.3383C3.84564 11.6217 3.84604 11.9083 3.84551 12.1948C3.84485 12.5092 3.8459 12.8236 3.84074 13.1381C3.83796 13.3072 3.90378 13.4272 4.06007 13.4961C4.09742 13.5126 4.13278 13.5338 4.16933 13.5525C5.50675 14.2201 6.84417 14.8878 8.18159 15.5549C8.24198 15.5851 8.30383 15.6125 8.38489 15.6505ZM1.49357 9.86988C1.57237 9.90961 1.61449 9.9316 1.65727 9.95199C2.24188 10.2334 2.82847 10.511 3.41083 10.7973C4.15887 11.1648 4.88559 11.5746 5.64688 11.9157C5.98699 12.0678 6.32578 12.1079 6.6704 11.9217C6.83847 11.8306 7.01582 11.7571 7.18852 11.6747C7.54016 11.507 7.89259 11.3412 8.24198 11.169C8.32211 11.1296 8.42224 11.1048 8.45985 10.9939C6.96443 10.2428 5.47616 9.4952 3.98153 8.7445C4.26045 8.54796 4.32098 8.49498 4.32654 8.28016C4.34071 7.73356 4.3484 7.1863 4.32045 6.63957C4.31939 6.61918 4.31462 6.59905 4.31065 6.57891C4.26535 6.34475 4.14682 6.27005 3.91451 6.32992C3.87504 6.34012 3.83557 6.35257 3.79862 6.36939C3.02674 6.71679 2.28293 7.11981 1.49741 7.51463C2.28055 7.91077 3.03972 8.29486 3.82405 8.69179C3.04078 9.08767 2.28625 9.4691 1.49357 9.86988ZM8.55826 11.0253C8.63176 11.0967 8.69799 11.1175 8.75851 11.1482C9.35014 11.447 9.94455 11.7399 10.5323 12.0462C10.7791 12.1747 11.007 12.1782 11.2522 12.0473C11.6075 11.8573 11.97 11.6808 12.33 11.4999C13.3245 10.9996 14.3196 10.5002 15.3137 9.99914C15.3906 9.96034 15.4732 9.92723 15.549 9.84988C14.7864 9.4646 14.0388 9.08674 13.2584 8.69259C14.0443 8.29366 14.7999 7.91024 15.5831 7.51277C14.9292 7.18418 14.3106 6.87837 13.6973 6.56262C13.4938 6.45773 13.2831 6.38872 13.0595 6.34992C12.8416 6.31191 12.755 6.38329 12.7509 6.60871C12.7502 6.64977 12.7538 6.6907 12.7545 6.73175C12.7611 7.14895 12.771 7.56628 12.7434 7.98322C12.7224 8.29936 12.8236 8.54822 13.1321 8.68133C13.1497 8.68888 13.1523 8.69974 13.1142 8.73987C11.621 9.48884 10.0959 10.254 8.55826 11.0253ZM3.6083 5.84411C3.61439 5.85696 3.62062 5.86981 3.62684 5.88279C3.93345 5.88279 4.24019 5.88107 4.5468 5.88332C4.71884 5.88464 4.78069 5.94226 4.79831 6.10993C4.80334 6.15734 4.80268 6.20555 4.80255 6.2535C4.80056 6.94433 4.804 7.63555 4.79275 8.32651C4.78851 8.59219 4.89128 8.76424 5.13061 8.87761C6.16738 9.36858 7.19183 9.88484 8.21258 10.4079C8.44104 10.5248 8.64262 10.5276 8.87109 10.4097C9.88998 9.88352 10.9152 9.36964 11.9505 8.87602C12.1806 8.76622 12.2904 8.61153 12.2851 8.34797C12.2712 7.66403 12.2756 6.97982 12.2736 6.29588C12.2733 6.22754 12.2704 6.15788 12.2824 6.09139C12.31 5.93974 12.3778 5.8861 12.5361 5.88332C12.6798 5.88067 12.8235 5.88279 12.9672 5.88279H13.5132C13.4425 5.80835 13.3997 5.75683 13.3506 5.7126C12.7245 5.15051 12.1007 4.5855 11.468 4.03069C11.3278 3.90779 11.2641 3.78249 11.2687 3.59297C11.2814 3.08001 11.2734 2.56666 11.273 2.05344C11.2728 1.84987 11.2722 1.84908 11.0769 1.84855C10.7895 1.84775 10.5021 1.84683 10.2147 1.84921C10.1131 1.85001 9.98547 1.80683 9.9162 1.86775C9.83502 1.93914 9.89448 2.0741 9.88442 2.18085C9.87263 2.30389 9.90389 2.4313 9.86177 2.55659C9.78773 2.52798 9.74827 2.47938 9.7031 2.43845C9.38325 2.14973 9.06472 1.85941 8.74394 1.57174C8.54117 1.3899 8.53958 1.39162 8.34145 1.57042C7.04111 2.74347 5.74078 3.91653 4.44058 5.08985C4.16271 5.34056 3.88564 5.5926 3.6083 5.84411ZM0 8.52518C0.0233101 3.80925 3.88842 0.047575 8.43045 0.000558853C13.1447 -0.0481815 17.088 3.83958 17.0859 8.53312C17.0839 12.9913 13.4497 17.0759 8.56806 17.0811C3.82776 17.0857 0.0278132 13.2619 0 8.52518Z" fill="#142B35"/>
<path fill-rule="evenodd" clip-rule="evenodd" d="M72.6466 9.496C72.6833 9.41481 72.6686 9.34607 72.6689 9.27972C72.6715 7.68602 72.6737 6.09219 72.6749 4.4985C72.675 4.24526 72.6668 3.99229 72.6668 3.73933C72.6668 3.46119 72.7451 3.38133 73.0168 3.38093C73.776 3.37974 74.5352 3.38054 75.2942 3.3808C75.3421 3.3808 75.391 3.37868 75.4375 3.38756C75.5694 3.41246 75.6245 3.47325 75.6301 3.63589C75.6392 3.90237 75.6352 4.16924 75.6355 4.43598C75.6356 4.53174 75.6295 4.62723 75.6294 4.72299C75.6293 7.4455 75.629 10.168 75.6295 12.8904C75.6297 13.3693 75.6346 13.8481 75.637 14.3266C75.6372 14.3812 75.6387 14.4363 75.6347 14.4909C75.6193 14.6968 75.5616 14.7605 75.3547 14.7622C74.9651 14.7654 74.5752 14.7555 74.1854 14.7563C73.8437 14.7565 73.5004 14.747 73.1603 14.7726C72.8276 14.7977 72.6068 14.6805 72.4349 14.3918C71.3822 12.6254 70.3196 10.8649 69.2603 9.10224C69.1911 8.98702 69.1288 8.86557 68.992 8.78769C68.9533 8.86742 68.9709 8.94238 68.9709 9.01284C68.9709 10.7434 68.9727 12.4739 68.974 14.2045C68.974 14.2593 68.9719 14.3142 68.9742 14.3689C68.9855 14.6179 68.9603 14.7918 68.5598 14.7734C68.0128 14.7483 67.4661 14.7508 66.9191 14.7579C66.7345 14.76 66.5503 14.7695 66.3658 14.772C66.3047 14.7731 66.2435 14.7638 66.1826 14.7565C66.0688 14.7437 66.0157 14.672 66.0071 14.5641C66.001 14.4894 66.0006 14.4138 66.0006 14.3388C66.0019 12.0335 66.0039 9.72831 66.0045 7.42325C66.0047 6.20556 66.0017 4.98801 66.0006 3.77045C66.0003 3.42451 66.046 3.37709 66.3889 3.38107C67.0796 3.38915 67.7706 3.40716 68.4606 3.37537C68.7973 3.35987 69.0154 3.50133 69.1801 3.78052C69.6939 4.65107 70.2137 5.51831 70.7334 6.38556C71.3237 7.36975 71.916 8.35274 72.5093 9.33508C72.5423 9.38991 72.56 9.46156 72.6466 9.496Z" fill="#142B35"/>
<path fill-rule="evenodd" clip-rule="evenodd" d="M88.5109 9.0718C88.5109 7.32738 88.5108 5.58297 88.511 3.83868C88.511 3.44347 88.5795 3.37923 88.978 3.37937C91.4543 3.38029 93.9306 3.38003 96.4069 3.38029C96.8301 3.38043 96.8988 3.44598 96.8791 3.86901C96.856 4.3613 96.8502 4.8528 96.8802 5.3447C96.8819 5.37198 96.8823 5.39927 96.8827 5.42682C96.8892 5.74746 96.8086 5.83368 96.4931 5.83527C96.2264 5.83646 95.9595 5.83236 95.6929 5.83183C94.4958 5.82931 93.2989 5.82693 92.1018 5.8256C92.02 5.82534 91.9369 5.82666 91.8566 5.83964C91.7322 5.85951 91.6812 5.91765 91.6658 6.04361C91.66 6.09062 91.6613 6.1391 91.6642 6.18678C91.684 6.5355 91.6824 6.88396 91.665 7.23269C91.6632 7.27375 91.6603 7.3148 91.6625 7.35573C91.6725 7.53148 91.7335 7.60459 91.9136 7.6128C92.1455 7.6234 92.3785 7.61651 92.6108 7.61598C93.7737 7.61386 94.9367 7.61134 96.0995 7.60923C96.1607 7.60909 96.2218 7.60949 96.2822 7.6279C96.3998 7.66379 96.4702 7.73823 96.4769 7.86219C96.4818 7.95067 96.4795 8.03993 96.4769 8.12867C96.4633 8.59381 96.4647 9.05869 96.4778 9.5237C96.4799 9.59218 96.4839 9.66091 96.4783 9.72886C96.4667 9.87004 96.4216 9.91679 96.2853 9.956C96.1709 9.98911 96.0544 9.97798 95.9387 9.97785C95.0152 9.97653 94.0918 9.97507 93.1684 9.97096C92.8128 9.96937 92.4575 9.96024 92.102 9.95441C92.0746 9.95414 92.0471 9.95295 92.0199 9.95414C91.7314 9.9662 91.6583 10.0401 91.6653 10.3305C91.6776 10.8297 91.6857 11.3288 91.6608 11.828C91.6478 12.0931 91.7215 12.1736 91.9893 12.1861C92.1731 12.1946 92.3581 12.1805 92.5426 12.1799C93.8696 12.1759 95.1965 12.1724 96.5236 12.1695C96.9403 12.1687 97.0182 12.2483 96.9968 12.6622C96.9692 13.2022 96.9697 13.742 96.9951 14.2819C96.998 14.3435 96.9979 14.4053 96.9955 14.4669C96.9864 14.6891 96.9236 14.7625 96.6988 14.7717C96.46 14.7815 96.2202 14.7731 95.9807 14.7719C95.9194 14.7714 95.8581 14.7646 95.7966 14.7646C94.278 14.7617 92.7594 14.7571 91.2408 14.7579C90.4819 14.7584 89.7228 14.7706 88.9638 14.7747C88.5706 14.7768 88.511 14.716 88.511 14.3255C88.5106 12.5741 88.5109 10.823 88.5109 9.0718Z" fill="#142B35"/>
<path fill-rule="evenodd" clip-rule="evenodd" d="M24.5657 6.48775C24.5518 6.48642 24.5378 6.48536 24.5239 6.48417C24.4551 6.7382 24.386 6.99222 24.3179 7.24652C24.06 8.20846 23.8018 9.17053 23.5447 10.1329C23.4802 10.3748 23.5056 10.4086 23.7582 10.408C24.2845 10.4068 24.811 10.3992 25.3373 10.4126C25.5596 10.4183 25.6078 10.3519 25.5601 10.1395C25.5482 10.0862 25.5314 10.0341 25.5167 9.98162C25.3979 9.55435 25.2768 9.12788 25.1606 8.69969C24.9607 7.96304 24.7638 7.22506 24.5657 6.48775ZM19.1198 14.7397C19.266 14.2929 19.4073 13.8594 19.5502 13.4261C20.6001 10.2435 21.6502 7.06096 22.7005 3.87873C22.7177 3.82668 22.7356 3.7753 22.7548 3.72417C22.845 3.48524 23.0136 3.36843 23.2733 3.37439C23.7314 3.38472 24.1898 3.39134 24.648 3.39253C25.0584 3.39346 25.4687 3.38379 25.879 3.38061C26.2324 3.3777 26.313 3.43558 26.4256 3.77728C26.8248 4.98941 27.2203 6.20273 27.6213 7.41406C28.3829 9.71368 29.1475 12.0122 29.9106 14.3113C29.9215 14.3437 29.9305 14.3768 29.9404 14.4093C30.0288 14.7022 29.9664 14.7826 29.6562 14.7733C28.8152 14.7488 27.9743 14.7472 27.1334 14.7746C26.8455 14.7842 26.7464 14.7066 26.6724 14.4213C26.5643 14.005 26.4558 13.5891 26.3477 13.1726C26.2945 12.9672 26.2203 12.9058 25.9978 12.9057C25.3479 12.905 24.6982 12.9086 24.0481 12.9092C23.7336 12.9094 23.4187 12.905 23.1042 12.9054C22.8421 12.9057 22.7706 12.9661 22.7058 13.2209C22.5983 13.6445 22.489 14.0674 22.3783 14.4897C22.3209 14.7089 22.2593 14.763 22.0355 14.763C21.0846 14.763 20.1337 14.7589 19.1829 14.7554C19.1698 14.7552 19.1567 14.7489 19.1198 14.7397Z" fill="#142B35"/>
<path fill-rule="evenodd" clip-rule="evenodd" d="M58.468 10.401C58.5257 10.4045 58.559 10.4083 58.5923 10.4083C59.1868 10.4087 59.7811 10.4086 60.3755 10.4084C60.4097 10.4084 60.444 10.4065 60.4779 10.4047C60.5661 10.4005 60.5975 10.3486 60.5865 10.2677C60.5808 10.2275 60.5663 10.1886 60.5556 10.1492C60.2449 9.01155 59.9347 7.87346 59.6215 6.73643C59.6053 6.67763 59.6259 6.57234 59.5337 6.57591C59.4506 6.57922 59.4642 6.68174 59.4476 6.7416C59.254 7.45203 59.0639 8.16325 58.8737 8.87474C58.7399 9.37498 58.6078 9.87575 58.468 10.401ZM54.1101 14.7356C54.2661 14.2648 54.4233 13.7928 54.5795 13.3204C55.6265 10.1512 56.6732 6.98199 57.7201 3.81287C57.7351 3.76744 57.7494 3.72175 57.767 3.67725C57.8461 3.47765 57.9901 3.37448 58.2086 3.37832C58.4959 3.38322 58.7833 3.38733 59.0704 3.38733C59.6725 3.38759 60.2746 3.38454 60.8765 3.38375C61.2362 3.38322 61.2892 3.42176 61.4039 3.76784C62.3101 6.50135 63.2159 9.23499 64.1221 11.9684C64.399 12.804 64.6775 13.6389 64.955 14.4741C65.0489 14.7571 65.0486 14.7571 64.7544 14.7571C63.8514 14.7574 62.9482 14.7574 62.045 14.7574C61.777 14.7574 61.7617 14.7444 61.6917 14.4912C61.5719 14.0569 61.4438 13.6246 61.3397 13.1862C61.2858 12.9594 61.2152 12.9059 60.9816 12.9057C60.0101 12.9043 59.0387 12.9042 58.0673 12.9057C57.8278 12.9062 57.771 12.958 57.7131 13.1872C57.6044 13.6174 57.493 14.0468 57.3804 14.4759C57.3176 14.7152 57.2555 14.7644 57.0071 14.7641C56.3639 14.7631 55.721 14.7587 55.078 14.7579C54.8249 14.7574 54.5717 14.7636 54.3187 14.7636C54.2526 14.7633 54.1828 14.782 54.1101 14.7356Z" fill="#142B35"/>
<path fill-rule="evenodd" clip-rule="evenodd" d="M80.4234 9.02019C80.4309 9.72148 80.4536 10.3363 80.6301 10.9331C80.7339 11.2847 80.8882 11.6088 81.158 11.8679C81.431 12.13 81.7583 12.2676 82.1328 12.2885C82.3576 12.301 82.5821 12.3019 82.8066 12.2563C83.1884 12.1787 83.4855 11.9792 83.7098 11.6669C83.911 11.3871 84.0486 11.0752 84.1613 10.7512C84.204 10.6287 84.2393 10.5032 84.2898 10.3842C84.3657 10.2057 84.4608 10.156 84.6496 10.2081C84.8663 10.2681 85.0793 10.3418 85.2923 10.4147C85.8081 10.591 86.3231 10.7702 86.8385 10.9486C87.0267 11.0137 87.0663 11.0666 87.0232 11.2488C86.818 12.1169 86.4885 12.9275 85.9023 13.6152C85.3112 14.3081 84.5613 14.7203 83.6655 14.8759C83.015 14.989 82.3625 15.0292 81.7054 14.9516C81.1339 14.884 80.5737 14.7635 80.0431 14.5358C79.2416 14.1915 78.6441 13.6165 78.2096 12.8679C77.7932 12.151 77.5434 11.3716 77.3892 10.5626C77.0923 9.00562 77.2495 7.48861 77.8248 6.01305C78.3907 4.56133 79.4473 3.68005 80.9582 3.34377C81.9813 3.11584 83.0048 3.1214 84.0216 3.40126C85.0133 3.67422 85.7591 4.26519 86.288 5.14011C86.5472 5.5691 86.7384 6.02855 86.8962 6.50243C86.9662 6.71341 86.9321 6.77407 86.7208 6.82506C85.9716 7.00532 85.2241 7.19246 84.4818 7.39934C84.4621 7.4049 84.4416 7.40729 84.4214 7.41152C84.2412 7.45033 84.169 7.41007 84.1256 7.22915C84.0453 6.8942 83.8743 6.60997 83.6415 6.36283C83.2795 5.97861 82.8205 5.83756 82.3054 5.86432C81.4955 5.90656 81.0187 6.39171 80.7116 7.08916C80.564 7.42384 80.5098 7.7829 80.4656 8.14301C80.4263 8.4626 80.4084 8.78325 80.4234 9.02019Z" fill="#142B35"/>
<path fill-rule="evenodd" clip-rule="evenodd" d="M30.9835 9.10419C30.9835 7.34653 30.9837 5.5886 30.9835 3.83081C30.9835 3.43811 31.0437 3.37374 31.4309 3.3809C32.183 3.3948 32.9352 3.39878 33.6873 3.37918C33.6942 3.37904 33.7009 3.37891 33.7077 3.37878C34.0641 3.37626 34.1466 3.45573 34.1475 3.80644C34.1485 4.18933 34.1479 4.57236 34.1477 4.95552C34.1466 6.19347 34.1469 7.43143 34.144 8.66951C34.1417 9.61331 34.1351 10.5568 34.1314 11.5006C34.1301 11.8581 34.229 11.9613 34.5792 11.9499C35.4271 11.9219 36.275 11.9384 37.1229 11.9333C37.5948 11.9308 38.0667 11.9282 38.5386 11.9262C38.5864 11.9259 38.6349 11.9243 38.682 11.9305C38.8825 11.9574 38.9594 12.0353 38.9633 12.2394C38.9681 12.4786 38.9579 12.7179 38.958 12.9573C38.9586 13.4362 38.9613 13.9147 38.9633 14.3935C38.9635 14.4413 38.966 14.4895 38.9616 14.537C38.9477 14.6912 38.9044 14.7313 38.7482 14.7618C38.6453 14.7818 38.5436 14.7642 38.4418 14.7639C36.8822 14.7623 35.3229 14.7574 33.7635 14.7582C32.9908 14.7588 32.2181 14.7696 31.4454 14.7756C31.4113 14.7758 31.3772 14.7761 31.3429 14.7756C31.0341 14.7719 30.9878 14.7264 30.9877 14.4188C30.9873 12.6473 30.9876 10.8758 30.9876 9.10419H30.9835Z" fill="#142B35"/>
<path fill-rule="evenodd" clip-rule="evenodd" d="M40.3403 9.08653C40.3403 7.5066 40.3404 5.92668 40.3399 4.34676C40.3399 4.14173 40.3285 3.93631 40.3375 3.73169C40.3497 3.45687 40.4344 3.37462 40.7033 3.37992C41.5034 3.39554 42.3033 3.39528 43.1034 3.38018C43.3693 3.37528 43.4648 3.47024 43.4686 3.73381C43.4733 4.03458 43.4678 4.33563 43.4676 4.63654C43.4664 6.69512 43.4653 8.75396 43.464 10.8127C43.4637 11.0656 43.455 11.3187 43.4618 11.5716C43.4692 11.8415 43.5496 11.9241 43.8182 11.9449C43.9469 11.955 44.0776 11.9443 44.2074 11.9436C45.0213 11.94 45.8349 11.9368 46.6487 11.9331C47.0522 11.9313 47.4557 11.9293 47.8593 11.927C47.9002 11.9269 47.9414 11.9241 47.9821 11.9268C48.2101 11.9429 48.2896 12.017 48.2858 12.2488C48.274 12.9874 48.279 13.7256 48.2839 14.4644C48.2852 14.6864 48.2165 14.7575 47.9911 14.7711C47.807 14.7823 47.6218 14.7779 47.4372 14.7749C45.9395 14.7497 44.442 14.757 42.9443 14.758C42.2194 14.7588 41.4948 14.7706 40.77 14.7749C40.3834 14.7771 40.3312 14.7241 40.3321 14.339C40.3355 12.9847 40.3404 11.6308 40.3442 10.2765C40.3453 9.87986 40.3443 9.48319 40.3443 9.08653H40.3403Z" fill="#142B35"/>
<path fill-rule="evenodd" clip-rule="evenodd" d="M52.9205 9.07182C52.9205 10.8165 52.9202 12.5612 52.9209 14.3059C52.9211 14.7195 52.8551 14.7772 52.4451 14.7676C51.7136 14.7503 50.9817 14.7358 50.2502 14.7746C49.8709 14.7947 49.7827 14.7102 49.7832 14.3395C49.7864 11.9517 49.7897 9.56398 49.7905 7.17615C49.7909 6.10203 49.7857 5.02791 49.7832 3.95379C49.7831 3.87869 49.7812 3.8032 49.7856 3.7281C49.7999 3.47778 49.8943 3.38282 50.1431 3.38017C50.3756 3.37766 50.6082 3.38256 50.8406 3.38865C51.3606 3.40189 51.8803 3.38706 52.4002 3.38123C52.489 3.38017 52.5786 3.37567 52.6669 3.38361C52.8243 3.39779 52.8978 3.47381 52.9127 3.63274C52.9192 3.70042 52.9166 3.76929 52.9166 3.83776C52.9167 5.58245 52.9167 7.32713 52.9167 9.07182H52.9205Z" fill="#142B35"/>
<path fill-rule="evenodd" clip-rule="evenodd" d="M5.72155 23.3277C5.80923 23.2552 5.82525 23.1499 5.85148 23.0538C6.15928 21.9272 6.46549 20.8004 6.76878 19.6727C6.88242 19.2504 6.91937 19.217 7.35909 19.2276C7.74225 19.2366 8.12514 19.2335 8.5083 19.224C8.80113 19.2167 8.87583 19.2827 8.88047 19.5774C8.8859 19.9397 8.8757 20.3024 8.87491 20.6649C8.87212 21.9305 8.8704 23.1963 8.86775 24.4622C8.86736 24.6811 8.86987 24.9002 8.86126 25.1187C8.84868 25.4429 8.74352 25.543 8.41956 25.5482C8.24858 25.5513 8.07746 25.5513 7.90661 25.5445C7.68371 25.536 7.61801 25.463 7.61828 25.2391C7.62 23.9459 7.62199 22.6527 7.62384 21.3599C7.62384 21.2929 7.62384 21.2262 7.62384 21.1447C7.56239 21.1956 7.55524 21.2564 7.53762 21.3123C7.18333 22.4329 6.90149 23.5732 6.60336 24.7093C6.55661 24.8874 6.51105 25.066 6.44125 25.2375C6.35675 25.4449 6.20206 25.5461 5.98114 25.5482C5.80327 25.5497 5.62526 25.551 5.44752 25.5466C5.24303 25.5417 5.09787 25.4416 5.01523 25.2548C4.9351 25.073 4.88848 24.8803 4.83762 24.6885C4.54002 23.567 4.25632 22.4412 3.90045 21.3358C3.8819 21.2783 3.8631 21.221 3.84164 21.1548C3.78535 21.2166 3.81171 21.2838 3.81171 21.3428C3.81078 22.6359 3.81211 23.9291 3.81317 25.2223C3.81343 25.4682 3.7488 25.5383 3.50033 25.545C3.31557 25.5502 3.13068 25.5528 2.94619 25.5469C2.68686 25.5385 2.58952 25.4517 2.5527 25.1956C2.53826 25.0945 2.53985 24.9908 2.53972 24.8885C2.53786 23.2736 2.53707 21.6589 2.53561 20.0442C2.53548 19.8869 2.52992 19.7294 2.5327 19.5722C2.538 19.2892 2.60912 19.217 2.88765 19.224C3.33226 19.2351 3.77674 19.2351 4.22136 19.2243C4.47631 19.2181 4.56373 19.2808 4.63339 19.5292C4.77365 20.0287 4.90556 20.5306 5.0441 21.0305C5.2319 21.7083 5.42368 22.3845 5.61109 23.0622C5.63665 23.1551 5.66963 23.2425 5.72155 23.3277Z" fill="#142B35"/>
<path fill-rule="evenodd" clip-rule="evenodd" d="M72.2771 21.9034V21.8949C72.4547 21.8949 72.6323 21.8995 72.8094 21.8938C73.0413 21.8863 73.2729 21.8675 73.4987 21.813C73.8798 21.7207 74.0729 21.454 74.0619 21.0479C74.052 20.6899 73.8239 20.4359 73.444 20.3727C73.08 20.3125 72.7112 20.3027 72.343 20.2948C72.1796 20.2915 72.0163 20.2972 71.8533 20.3213C71.5304 20.3689 71.4529 20.4552 71.4233 20.7804C71.3951 21.0867 71.4297 21.3935 71.4061 21.7001C71.3954 21.8398 71.4571 21.8985 71.6018 21.9021C71.8268 21.9075 72.0522 21.9034 72.2771 21.9034ZM73.8496 22.7684C73.9166 22.8587 73.9979 22.8986 74.066 22.9539C74.4088 23.2324 74.6913 23.5654 74.944 23.9247C75.3018 24.4336 75.608 24.9765 75.9727 25.4809C75.9789 25.4894 75.9735 25.5062 75.9735 25.5428H75.8235C75.4131 25.5428 75.0024 25.5372 74.5921 25.5453C74.4215 25.5489 74.3166 25.4812 74.2212 25.3433C73.7812 24.7083 73.3369 24.076 72.8841 23.4503C72.5748 23.0227 72.1317 22.8829 71.6227 22.9174C71.4778 22.9272 71.4337 22.9768 71.4199 23.1228C71.4155 23.1703 71.4177 23.2185 71.4178 23.2664C71.4196 23.9027 71.4216 24.539 71.4236 25.1751C71.4239 25.2163 71.4267 25.2574 71.4236 25.2983C71.4114 25.4563 71.353 25.5334 71.2003 25.5396C70.9477 25.5502 70.6933 25.5556 70.4418 25.5371C70.1972 25.519 70.0984 25.4028 70.0744 25.1498C70.0584 24.9799 70.049 24.8087 70.0487 24.6378C70.0466 23.1805 70.0478 21.7231 70.0473 20.266C70.0473 20.0538 70.0432 19.8418 70.0424 19.6298C70.0421 19.5753 70.0424 19.5197 70.051 19.4664C70.0792 19.2922 70.1474 19.2304 70.3243 19.225C70.454 19.2211 70.5843 19.2281 70.7142 19.2279C71.4394 19.2279 72.1645 19.2247 72.8898 19.2271C73.314 19.2287 73.7382 19.248 74.1528 19.3468C75.2286 19.6038 75.7711 20.7021 75.3277 21.7191C75.1703 22.0801 74.8967 22.3284 74.5538 22.5086C74.335 22.6235 74.0983 22.6897 73.8496 22.7684Z" fill="#142B35"/>
<path fill-rule="evenodd" clip-rule="evenodd" d="M27.2859 21.6439C27.2357 21.6947 27.2208 21.7653 27.2249 21.8413C27.2663 22.6068 27.2159 23.3725 27.2316 24.1379C27.2389 24.4933 27.2402 24.8487 27.2404 25.2042C27.2406 25.4845 27.1837 25.5423 26.9069 25.5469C26.7291 25.55 26.551 25.5534 26.3735 25.5453C26.1107 25.5329 26.0023 25.4279 25.9814 25.1684C25.9684 25.005 25.9628 24.8405 25.9631 24.6766C25.9641 23.7671 25.9709 22.8577 25.9697 21.9479C25.9685 21.2026 25.9576 20.4576 25.9535 19.7124C25.9517 19.3243 26.0028 19.2651 26.3846 19.2095C26.8788 19.137 27.2887 19.2849 27.5937 19.6891C27.6716 19.7924 27.7431 19.9015 27.8082 20.0134C28.4231 21.0713 29.1133 22.0814 29.7734 23.1106C29.7918 23.1394 29.8102 23.1694 29.8347 23.1921C29.8743 23.2286 29.9122 23.2198 29.9204 23.1652C29.9283 23.1117 29.9235 23.0561 29.9234 23.0015C29.9224 21.8936 29.9209 20.7857 29.9204 19.6777C29.9201 19.2849 29.9953 19.2108 30.3896 19.223C30.5601 19.2284 30.7304 19.2198 30.9004 19.2524C31.0657 19.2843 31.1497 19.3769 31.177 19.5373C31.1967 19.6529 31.1943 19.7688 31.1943 19.885C31.195 21.0816 31.1943 22.2787 31.195 23.4756C31.1953 24.0157 31.1981 24.5559 31.1995 25.0962C31.1995 25.1442 31.2 25.1922 31.1963 25.2398C31.1836 25.4102 31.1256 25.4933 30.9591 25.529C30.4133 25.6452 29.9022 25.5679 29.514 25.056C29.4229 24.9357 29.345 24.8076 29.2701 24.6769C28.6812 23.651 28.0027 22.6823 27.3586 21.6912C27.3447 21.6698 27.3328 21.6431 27.2859 21.6439Z" fill="#142B35"/>
<path fill-rule="evenodd" clip-rule="evenodd" d="M37.1104 22.1415H38.1979C38.4631 22.1415 38.5269 22.1984 38.5212 22.4674C38.5101 22.994 38.5078 23.5205 38.5149 24.0472C38.5165 24.1703 38.522 24.2932 38.522 24.4163C38.5216 24.6088 38.4411 24.7562 38.2757 24.8602C37.4729 25.3654 36.6094 25.6759 35.6508 25.6642C35.0705 25.6572 34.512 25.5299 33.9842 25.2884C33.2983 24.9741 32.8149 24.4598 32.566 23.7479C32.2716 22.9052 32.235 22.0449 32.5099 21.1903C32.8326 20.1856 33.5056 19.5347 34.5337 19.259C35.3987 19.0272 36.2484 19.0575 37.0871 19.3783C37.7333 19.6253 38.1346 20.0968 38.3539 20.7392C38.3669 20.7777 38.3762 20.8181 38.3808 20.8584C38.39 20.9363 38.3694 20.9907 38.2757 20.9968C37.9072 21.0214 37.5389 21.0486 37.1708 21.077C37.1033 21.0822 37.05 21.0605 37.0059 21.0131C36.9547 20.9582 36.8984 20.9061 36.8571 20.8442C36.5397 20.3703 36.0747 20.1972 35.532 20.2172C35.0309 20.2355 34.5847 20.4102 34.2302 20.7804C33.9848 21.0364 33.8747 21.3607 33.7906 21.6929C33.6376 22.2967 33.7011 22.8832 33.9438 23.4569C34.1494 23.9422 34.5017 24.2565 34.9974 24.4169C35.5004 24.5795 36.0033 24.5881 36.5033 24.4028C36.6716 24.3406 36.822 24.2484 36.9583 24.1312C37.1026 24.0068 37.1731 23.8521 37.1637 23.6616C37.16 23.5862 37.158 23.511 37.1544 23.4359C37.1438 23.2271 37.1267 23.2089 36.9094 23.2002C36.6293 23.1894 36.3489 23.1817 36.0686 23.1731C35.9865 23.1706 35.9044 23.1718 35.8224 23.1679C35.6913 23.1617 35.6492 23.1332 35.6324 23.0042C35.6041 22.7864 35.619 22.5678 35.6526 22.3508C35.6709 22.2327 35.7472 22.172 35.8592 22.1554C35.9265 22.1453 35.9955 22.1441 36.0637 22.1439C36.4125 22.1428 36.7614 22.1433 37.1104 22.1433V22.1415Z" fill="#142B35"/>
<path fill-rule="evenodd" clip-rule="evenodd" d="M87.8173 22.1415C88.1729 22.1415 88.5285 22.142 88.8844 22.1412C89.1736 22.1407 89.2334 22.1947 89.2258 22.4905C89.212 23.0171 89.2132 23.5438 89.2188 24.0703C89.2202 24.1933 89.2275 24.3165 89.225 24.4394C89.2213 24.6155 89.145 24.7542 88.9944 24.8498C88.1693 25.3744 87.2791 25.6903 86.2906 25.6629C85.7326 25.6474 85.1938 25.5214 84.6859 25.2868C83.9646 24.9538 83.4765 24.4039 83.2354 23.6483C82.9911 22.8824 82.9549 22.1019 83.1733 21.3246C83.4764 20.2452 84.1646 19.5404 85.26 19.2521C86.1181 19.0263 86.9621 19.0589 87.7938 19.3791C88.4396 19.6274 88.84 20.0992 89.0589 20.7415C89.072 20.7798 89.0804 20.8204 89.0851 20.8607C89.0944 20.9402 89.069 20.9907 88.9771 20.997C88.6086 21.0214 88.2403 21.0486 87.8722 21.077C87.8043 21.0822 87.7518 21.0578 87.708 21.0111C87.6567 20.9562 87.601 20.9037 87.5595 20.8417C87.2417 20.3682 86.776 20.1996 86.2334 20.2164C85.8144 20.2293 85.43 20.3641 85.0973 20.6282C84.9287 20.7619 84.79 20.9229 84.7001 21.1178C84.3479 21.8826 84.3119 22.6528 84.6413 23.4401C84.8516 23.9432 85.2134 24.2655 85.7229 24.4251C86.2188 24.5806 86.7174 24.5879 87.21 24.4015C87.3909 24.3333 87.5522 24.2337 87.6938 24.1005C87.811 23.9905 87.8675 23.857 87.8676 23.6993C87.8676 23.5965 87.8631 23.4941 87.8562 23.3916C87.8463 23.2417 87.8212 23.2114 87.6722 23.2034C87.406 23.1891 87.1392 23.1826 86.8724 23.1744C86.7563 23.1706 86.6396 23.1638 86.5237 23.17C86.4118 23.1757 86.3527 23.1198 86.3397 23.0213C86.3087 22.7898 86.3195 22.558 86.3633 22.328C86.3828 22.2264 86.4523 22.1759 86.5463 22.1599C86.6198 22.1474 86.6957 22.1441 86.7706 22.1439C87.1194 22.1423 87.4684 22.1431 87.8173 22.1431V22.1415Z" fill="#142B35"/>
<path fill-rule="evenodd" clip-rule="evenodd" d="M14.8917 22.2825C14.8917 22.1804 14.8978 22.0773 14.8908 21.9755C14.8131 20.8554 14.1041 20.3273 13.3333 20.2332C12.492 20.1303 11.71 20.5974 11.4412 21.4009C11.3649 21.629 11.3204 21.8639 11.3014 22.1019C11.2585 22.6434 11.3331 23.1637 11.5994 23.647C11.9125 24.2151 12.5309 24.6523 13.3672 24.5245C14.2119 24.3948 14.599 23.8995 14.774 23.275C14.865 22.9509 14.9001 22.619 14.8917 22.2825ZM13.1371 25.6567C12.7047 25.6397 12.2993 25.602 11.9047 25.4744C10.993 25.1791 10.384 24.5772 10.1007 23.6666C9.83383 22.8092 9.8439 21.9389 10.1118 21.0837C10.3973 20.1718 11.0103 19.5676 11.9287 19.294C12.6775 19.071 13.4363 19.0495 14.1907 19.2666C15.1446 19.5415 15.7966 20.1561 16.115 21.0923C16.4269 22.0092 16.407 22.9366 16.0506 23.84C15.6591 24.8317 14.9005 25.3851 13.8687 25.5879C13.6196 25.6365 13.3668 25.6416 13.1371 25.6567Z" fill="#142B35"/>
<path fill-rule="evenodd" clip-rule="evenodd" d="M67.6551 22.3772C67.6446 22.207 67.6358 22.0363 67.6232 21.8661C67.5582 20.9808 66.941 20.3409 66.0695 20.2331C65.2225 20.1283 64.4102 20.6285 64.1685 21.4493C64.003 22.0111 63.988 22.5797 64.1304 23.1499C64.3919 24.1964 65.3455 24.7666 66.3758 24.4787C66.9684 24.3129 67.3338 23.8979 67.531 23.3284C67.637 23.0213 67.6572 22.7005 67.6551 22.3772ZM62.656 22.4431C62.6704 21.9275 62.7209 21.4465 62.8892 20.9841C63.183 20.1766 63.7273 19.6184 64.5439 19.3397C65.3067 19.0796 66.0879 19.0374 66.8659 19.2395C67.8751 19.502 68.5503 20.1515 68.8716 21.1402C69.1476 21.9899 69.1413 22.8527 68.8492 23.6998C68.4846 24.7571 67.722 25.3688 66.6385 25.5825C66.0206 25.704 65.4005 25.6802 64.7907 25.5108C63.6236 25.1865 62.9612 24.4024 62.7296 23.2311C62.6763 22.9618 62.6659 22.6882 62.656 22.4431Z" fill="#142B35"/>
<path fill-rule="evenodd" clip-rule="evenodd" d="M53.7815 25.6277C53.3486 25.6512 52.9224 25.615 52.5109 25.4667C51.9337 25.2591 51.5185 24.877 51.2754 24.3138C51.1997 24.139 51.1346 23.9582 51.0813 23.7753C51.0305 23.6003 51.0815 23.5168 51.2608 23.4752C51.5539 23.4068 51.8548 23.3875 52.1529 23.3515C52.2621 23.3384 52.3525 23.3943 52.4023 23.4974C52.4317 23.559 52.4537 23.6239 52.4795 23.6871C52.8691 24.6351 54.0593 24.8229 54.7861 24.2497C54.9251 24.1401 55.0154 23.9965 55.0459 23.821C55.1022 23.4964 54.9449 23.2382 54.6106 23.1278C54.3714 23.0486 54.1262 22.9878 53.8829 22.9213C53.5214 22.8228 53.1569 22.7335 52.7978 22.6268C52.4014 22.5087 52.0231 22.3448 51.7426 22.0269C51.2751 21.4971 51.1759 20.8892 51.4207 20.2322C51.5445 19.8992 51.7882 19.6582 52.1046 19.4991C53.2317 18.9322 54.3526 18.9488 55.4534 19.5653C55.9407 19.8379 56.1531 20.2949 56.1991 20.8351C56.2134 21.0033 56.198 21.0074 56.0386 21.0309C55.7477 21.0736 55.4561 21.1054 55.1618 21.114C54.9928 21.1189 54.8598 21.0513 54.8043 20.8939C54.642 20.4328 54.2618 20.2854 53.8356 20.2197C53.5792 20.1799 53.3179 20.191 53.0676 20.2867C52.9509 20.3312 52.8435 20.3883 52.7549 20.4759C52.5394 20.6884 52.5493 20.9574 52.7799 21.1528C52.8745 21.2329 52.9864 21.2828 53.1004 21.3308C53.4743 21.4867 53.8729 21.552 54.2625 21.6497C54.6462 21.7464 55.029 21.8471 55.3863 22.0212C55.8638 22.2537 56.2063 22.6045 56.3384 23.1343C56.4367 23.5284 56.4293 23.9211 56.3105 24.3079C56.2025 24.6594 55.9836 24.9342 55.6885 25.1509C55.2734 25.4567 54.7996 25.591 54.2936 25.6258C54.1237 25.6375 53.9523 25.6277 53.7815 25.6277Z" fill="#142B35"/>
<path fill-rule="evenodd" clip-rule="evenodd" d="M90.3918 22.3753C90.3918 21.4521 90.3915 20.5289 90.3918 19.6057C90.392 19.2629 90.4368 19.2236 90.7858 19.2238C92.1194 19.2249 93.4529 19.2236 94.7865 19.2233C94.8754 19.2233 94.9648 19.2197 95.0529 19.2274C95.1956 19.2401 95.2564 19.295 95.2588 19.4313C95.2628 19.6502 95.2582 19.8692 95.2481 20.0876C95.2424 20.2123 95.1866 20.2674 95.0592 20.2924C94.918 20.3203 94.7743 20.3252 94.6305 20.3248C93.8303 20.3222 93.0303 20.3201 92.2301 20.3181C92.1823 20.3178 92.1343 20.3176 92.0865 20.3181C91.8008 20.3211 91.7554 20.3637 91.7521 20.6538C91.7488 20.9272 91.7512 21.201 91.7545 21.4743C91.7569 21.6632 91.7902 21.6933 91.9884 21.6958C92.8773 21.708 93.7663 21.7191 94.6553 21.7305C94.7167 21.7313 94.7784 21.7299 94.8399 21.7333C94.9812 21.7408 94.9906 21.7495 94.9972 21.8869C95.0073 22.0852 95.0166 22.283 95.0231 22.4812C95.0297 22.6929 94.9862 22.751 94.7765 22.7784C94.5795 22.8039 94.3807 22.7768 94.1828 22.776C93.4649 22.7737 92.7468 22.7694 92.0288 22.7727C91.812 22.7737 91.7473 22.8454 91.7537 23.0626C91.7648 23.4458 91.7618 23.8281 91.754 24.2111C91.7491 24.4448 91.7559 24.4481 91.9959 24.4505C93.0286 24.4613 94.061 24.473 95.0938 24.479C95.4299 24.4807 95.366 24.5284 95.3721 24.7456C95.3776 24.9441 95.3881 25.142 95.391 25.3404C95.3931 25.4854 95.3625 25.5204 95.2196 25.5401C95.1523 25.5494 95.0832 25.5457 95.015 25.5457C93.6063 25.5459 92.1975 25.5459 90.7888 25.5459C90.7616 25.5459 90.7341 25.5462 90.7067 25.5459C90.4583 25.5418 90.3927 25.4788 90.3923 25.227C90.3908 24.2766 90.3918 23.326 90.3918 22.3753Z" fill="#142B35"/>
<path fill-rule="evenodd" clip-rule="evenodd" d="M79.6236 20.8229C79.6092 20.8218 79.5945 20.821 79.58 20.8202C79.5154 20.99 79.4513 21.1597 79.3859 21.3288C79.197 21.8183 79.0054 22.3064 78.8199 22.7968C78.7561 22.9656 78.7863 23.0054 78.9666 23.0071C79.2533 23.0106 79.5399 23.0082 79.8266 23.0082C79.977 23.0082 80.1272 23.0112 80.2772 23.0069C80.4248 23.0028 80.4568 22.9559 80.4152 22.8144C80.4018 22.7689 80.3807 22.7254 80.3628 22.6812C80.2993 22.5235 80.235 22.3656 80.1722 22.2076C79.989 21.7461 79.8064 21.2843 79.6236 20.8229ZM76.3709 25.5453C76.3475 25.4538 76.39 25.4015 76.4121 25.3466C77.2 23.3988 77.9898 21.4517 78.7798 19.5047C78.8029 19.448 78.827 19.391 78.8582 19.3386C78.9026 19.2639 78.9671 19.2235 79.0603 19.224C79.4227 19.2268 79.7849 19.2271 80.1473 19.224C80.2555 19.223 80.331 19.2661 80.38 19.359C80.4056 19.4072 80.429 19.4566 80.4501 19.5066C81.2711 21.4713 82.092 23.4359 82.9115 25.4007C82.9291 25.4426 82.9629 25.4828 82.945 25.5453C82.5313 25.5453 82.1151 25.5456 81.6991 25.5453C81.5583 25.545 81.4789 25.4788 81.4327 25.3409C81.3096 24.9718 81.1737 24.6071 81.0418 24.2411C80.9716 24.0463 80.9508 24.0284 80.745 24.0325C79.9927 24.0471 79.2408 24.0484 78.4888 24.0325C78.2951 24.0284 78.2696 24.0493 78.2062 24.2312C78.076 24.6053 77.945 24.9788 77.8208 25.3547C77.7777 25.484 77.698 25.545 77.5657 25.545C77.1694 25.5453 76.7732 25.5453 76.3709 25.5453Z" fill="#142B35"/>
<path fill-rule="evenodd" clip-rule="evenodd" d="M19.767 23.7624C20.0591 22.9254 20.352 22.0893 20.6427 21.2528C20.8421 20.679 21.0547 20.1099 21.2371 19.5305C21.3147 19.2837 21.3912 19.2301 21.6543 19.2254C21.88 19.2216 22.1058 19.2167 22.3311 19.2265C22.5997 19.2382 22.6673 19.3318 22.6187 19.5951C22.5888 19.7571 22.5269 19.9094 22.4703 20.0628C21.8422 21.7584 21.2134 23.4538 20.5844 25.1495C20.4614 25.4809 20.362 25.5481 20.0056 25.5469C19.8345 25.5461 19.6636 25.5458 19.4927 25.5466C19.0932 25.5483 19.0024 25.4853 18.8555 25.1067C18.5393 24.2925 18.224 23.4777 17.9053 22.6641C17.5545 21.7677 17.2003 20.873 16.848 19.9772C16.7931 19.8375 16.739 19.6965 16.7124 19.5483C16.6785 19.3597 16.7493 19.2529 16.9383 19.233C17.2517 19.2004 17.5671 19.2156 17.8811 19.2327C18.0052 19.2395 18.0976 19.3131 18.144 19.4325C18.1786 19.5212 18.2077 19.6124 18.2407 19.702C18.7241 21.015 19.2079 22.3278 19.6909 23.6409C19.7074 23.6854 19.7121 23.7353 19.767 23.7624Z" fill="#142B35"/>
<path fill-rule="evenodd" clip-rule="evenodd" d="M59.6655 19.2231C60.3906 19.2231 61.1155 19.2223 61.8407 19.2233C62.2161 19.2241 62.2881 19.3072 62.244 19.6739C62.2285 19.8036 62.2407 19.9328 62.2489 20.0628C62.2607 20.2467 62.1986 20.3253 62.0174 20.3241C61.6003 20.3204 61.183 20.3431 60.7662 20.3171C60.732 20.3149 60.6983 20.3084 60.6641 20.3077C60.4279 20.3038 60.3358 20.3814 60.3274 20.6178C60.3204 20.8154 60.3377 21.0141 60.3376 21.2124C60.3372 22.2315 60.334 23.2507 60.3331 24.2698C60.3328 24.5775 60.3383 24.8853 60.3387 25.1931C60.3391 25.4715 60.2705 25.541 59.9861 25.5459C59.7947 25.5494 59.6027 25.5535 59.4117 25.5437C59.1216 25.5286 59.0107 25.4151 58.987 25.1244C58.9524 24.7011 58.9695 24.2766 58.9656 23.8529C58.9565 22.8614 58.943 21.8698 58.9831 20.8786C58.9858 20.8103 58.9872 20.7415 58.9811 20.6735C58.9573 20.4053 58.8333 20.2788 58.5674 20.3046C58.1638 20.3439 57.7608 20.3131 57.3578 20.3258C57.0853 20.3344 57.0202 20.2704 57.0134 19.995C57.0096 19.8449 57.01 19.6939 57.0191 19.5441C57.0312 19.3413 57.1049 19.2647 57.3061 19.2368C57.3801 19.2266 57.4562 19.2285 57.5314 19.2285C58.2427 19.2277 58.9541 19.228 59.6655 19.228V19.2231Z" fill="#142B35"/>
<path fill-rule="evenodd" clip-rule="evenodd" d="M24.7194 22.4658C24.7194 23.3678 24.7196 24.27 24.7192 25.1724C24.7192 25.2202 24.7194 25.2683 24.714 25.3157C24.6976 25.4571 24.6368 25.5342 24.4939 25.5389C24.2216 25.5477 23.9482 25.5673 23.6766 25.5141C23.5065 25.481 23.4176 25.3839 23.3833 25.217C23.3554 25.0813 23.3553 24.9455 23.3553 24.8088C23.3546 23.5649 23.3555 22.3209 23.3545 21.077C23.3541 20.6257 23.349 20.1749 23.3479 19.7238C23.3476 19.635 23.3465 19.5452 23.3596 19.4578C23.3799 19.3233 23.4545 19.2402 23.587 19.2323C23.8526 19.2165 24.1204 19.2041 24.384 19.2529C24.5936 19.292 24.6642 19.3666 24.6955 19.5753C24.7115 19.6826 24.7108 19.7933 24.7108 19.9024C24.712 20.757 24.7115 21.6114 24.7115 22.4658H24.7194Z" fill="#142B35"/>
<path fill-rule="evenodd" clip-rule="evenodd" d="M7.63323 7.44223C7.63323 6.97722 7.63244 6.51234 7.63376 6.04747C7.63429 5.90217 7.63734 5.8982 7.78144 5.8978C8.28049 5.89595 8.77967 5.89608 9.27871 5.89767C9.42732 5.8982 9.43116 5.90178 9.43142 6.04243C9.43261 6.99258 9.43076 7.943 9.43394 8.89342C9.43434 8.99951 9.40149 9.03619 9.29408 9.03513C8.78814 9.03103 8.28221 9.03434 7.77627 9.03262C7.63707 9.03209 7.63429 9.02825 7.63376 8.87792C7.63244 8.3994 7.63323 7.92075 7.63323 7.44223Z" fill="#142B35"/>
</svg>
