<svg width="23" height="23" viewBox="0 0 23 23" fill="none" xmlns="http://www.w3.org/2000/svg">
<path d="M17.7164 22.6422C17.5015 22.6416 17.2873 22.6181 17.0775 22.5719C13.0823 21.7455 9.4016 19.8077 6.45913 16.9817C3.57944 14.1494 1.58223 10.5433 0.709127 6.59972C0.606177 6.10823 0.631445 5.59851 0.7825 5.11961C0.933554 4.64071 1.20531 4.20875 1.57163 3.86527L4.12718 1.40555C4.25771 1.28211 4.4128 1.18758 4.58234 1.12813C4.75187 1.06869 4.93204 1.04566 5.11107 1.06055C5.29671 1.07992 5.47585 1.13972 5.6359 1.23575C5.79595 1.33177 5.93301 1.4617 6.03746 1.61638L9.2319 6.33777C9.3517 6.52097 9.40952 6.73778 9.39687 6.9563C9.38422 7.17482 9.30176 7.38351 9.16163 7.55166L7.55802 9.46833C8.19668 10.8818 9.10115 12.1594 10.2222 13.2314C11.336 14.3423 12.6524 15.2293 14.1002 15.8444L16.0872 14.2664C16.2541 14.1345 16.4571 14.0565 16.6694 14.0428C16.8817 14.0291 17.0931 14.0804 17.2755 14.1897L22.0991 17.3075C22.2647 17.4063 22.4057 17.5413 22.5116 17.7024C22.6176 17.8635 22.6857 18.0464 22.7109 18.2376C22.7361 18.4287 22.7177 18.6231 22.6571 18.8061C22.5965 18.9891 22.4953 19.1561 22.3611 19.2944L19.8694 21.7605C19.5864 22.0422 19.2504 22.2651 18.8809 22.4164C18.5114 22.5677 18.1156 22.6445 17.7164 22.6422ZM5.00885 2.32555L2.45329 4.78527C2.24722 4.97729 2.09468 5.21964 2.01066 5.48849C1.92665 5.75733 1.91406 6.04342 1.97413 6.31861C2.78598 10.0191 4.65217 13.4054 7.34718 16.068C10.1163 18.7268 13.5799 20.5495 17.3394 21.3261C17.624 21.3856 17.9188 21.3735 18.1976 21.291C18.4764 21.2085 18.7303 21.0581 18.9366 20.8533L21.4283 18.3872L16.7708 15.378L14.6369 17.0775C14.5552 17.1421 14.459 17.1858 14.3565 17.2048C14.2541 17.2237 14.1485 17.2173 14.0491 17.1861C12.2773 16.5333 10.6716 15.497 9.34691 14.1514C7.97671 12.8718 6.91314 11.2994 6.23552 9.55138C6.20685 9.44556 6.2059 9.33414 6.23275 9.22784C6.2596 9.12155 6.31336 9.02395 6.38885 8.94444L8.11385 6.88083L5.00885 2.32555Z" fill="#142B35"/>
</svg>
